<svg width="388" height="383" viewBox="0 0 388 383" fill="none" xmlns="http://www.w3.org/2000/svg">
<g clip-path="url(#clip0_56_739)">
<path d="M83.8422 213.344C112.513 213.344 135.755 190.102 135.755 161.431C135.755 132.761 112.513 109.519 83.8422 109.519C55.1717 109.519 31.9297 132.761 31.9297 161.431C31.9297 190.102 55.1717 213.344 83.8422 213.344Z" fill="#5EDCD4"/>
<path d="M78.6983 181.235C77.5304 181.237 76.3936 180.859 75.4592 180.158L75.4013 180.115L63.2011 170.782C62.6361 170.349 62.1619 169.809 61.8056 169.192C61.4494 168.576 61.2181 167.895 61.1248 167.19C61.0316 166.484 61.0783 165.766 61.2623 165.079C61.4462 164.391 61.7639 163.746 62.1971 163.181C62.6302 162.616 63.1705 162.142 63.7869 161.785C64.4034 161.429 65.0839 161.198 65.7898 161.105C66.4956 161.011 67.213 161.058 67.9008 161.242C68.5886 161.426 69.2334 161.744 69.7984 162.177L77.7007 168.237L96.3742 143.875C96.8072 143.31 97.3472 142.836 97.9634 142.48C98.5796 142.124 99.2598 141.893 99.9654 141.8C100.671 141.706 101.388 141.753 102.075 141.937C102.763 142.121 103.408 142.438 103.972 142.871L103.974 142.873L103.858 143.034L103.977 142.873C105.117 143.748 105.862 145.04 106.05 146.465C106.238 147.89 105.853 149.331 104.98 150.472L83.0154 179.114C82.5073 179.774 81.854 180.308 81.1061 180.675C80.3582 181.041 79.536 181.231 78.7031 181.228L78.6983 181.235Z" fill="white"/>
<path d="M312.9 339.133C313.531 338.112 314.275 337.164 315.117 336.308C315.464 335.948 315.83 335.609 316.207 335.279C318.502 333.236 321.301 331.841 324.314 331.238C327.327 330.635 330.446 330.845 333.351 331.847C336.256 332.849 338.841 334.607 340.842 336.94C342.842 339.272 344.185 342.096 344.732 345.119C347.268 335.743 340.668 326.508 334.032 319.414C327.393 312.322 319.805 304.542 319.843 294.825C319.862 289.418 322.507 284.594 326.5 281.018C326.624 280.909 326.747 280.801 326.873 280.697C331.699 276.559 337.909 274.395 344.262 274.636C356.065 275.269 366.37 283.201 373.527 292.61C385.046 307.749 390.094 329.001 382.03 346.234C374.936 361.392 359.808 370.393 344.367 377.629C342.212 378.639 340.06 379.619 337.912 380.569C337.898 380.573 337.883 380.583 337.868 380.587C337.765 380.632 337.662 380.678 337.565 380.724C337.122 380.92 336.678 381.115 336.239 381.309L336.442 381.442L337.077 381.853C336.857 381.719 336.639 381.59 336.419 381.457C336.354 381.416 336.285 381.378 336.219 381.338C328.636 376.788 320.947 371.974 315.708 364.87C310.275 357.495 308.09 346.93 312.9 339.133Z" fill="#F1F1F1"/>
<path d="M363.496 322.004C365.176 325.824 366.289 329.868 366.801 334.01C367.204 337.702 367.052 341.435 366.351 345.083C364.846 352.579 361.562 359.604 356.775 365.567C353.165 370.094 348.996 374.147 344.369 377.629C342.213 378.639 340.061 379.619 337.914 380.569C337.9 380.573 337.884 380.583 337.87 380.587C337.767 380.632 337.663 380.678 337.566 380.724C337.123 380.92 336.68 381.115 336.24 381.309L336.444 381.442L337.079 381.853C336.859 381.719 336.641 381.59 336.421 381.457C336.355 381.416 336.286 381.378 336.221 381.338C337.89 375.5 338.135 369.348 336.936 363.396C335.738 357.444 333.13 351.866 329.331 347.13C325.512 342.453 320.642 338.745 315.118 336.308C315.465 335.948 315.831 335.609 316.209 335.279C318.336 336.256 320.374 337.419 322.297 338.755C329.174 343.509 334.338 350.35 337.025 358.267C339.424 365.449 339.723 373.167 337.889 380.514C338.269 380.265 338.651 380.009 339.023 379.755C346.087 374.991 352.598 369.27 357.502 362.253C361.732 356.323 364.439 349.444 365.384 342.222C366.324 334.333 364.35 326.574 360.828 319.535C356.938 312.004 352.037 305.04 346.261 298.836C340.459 292.462 333.899 286.821 326.727 282.04C326.565 281.931 326.452 281.764 326.41 281.574C326.368 281.384 326.401 281.185 326.502 281.018C326.579 280.866 326.712 280.751 326.874 280.697C326.956 280.676 327.042 280.674 327.125 280.69C327.208 280.707 327.286 280.742 327.353 280.794C328.239 281.385 329.116 281.98 329.984 282.594C337.206 287.709 343.766 293.7 349.511 300.432C355.063 306.92 360.115 314.129 363.496 322.004Z" fill="white"/>
<path d="M208.884 24.9451C214.973 24.9451 219.909 20.0091 219.909 13.9203C219.909 7.83148 214.973 2.89551 208.884 2.89551C202.795 2.89551 197.859 7.83148 197.859 13.9203C197.859 20.0091 202.795 24.9451 208.884 24.9451Z" fill="#F1F1F1"/>
<path d="M345.972 172.483C349.684 172.483 352.693 169.474 352.693 165.762C352.693 162.049 349.684 159.04 345.972 159.04C342.259 159.04 339.25 162.049 339.25 165.762C339.25 169.474 342.259 172.483 345.972 172.483Z" fill="#F1F1F1"/>
<path d="M149.255 190.925C152.967 190.925 155.976 187.916 155.976 184.204C155.976 180.491 152.967 177.482 149.255 177.482C145.543 177.482 142.533 180.491 142.533 184.204C142.533 187.916 145.543 190.925 149.255 190.925Z" fill="#F1F1F1"/>
<path d="M153.049 382.595H387.265C387.429 382.595 387.585 382.53 387.7 382.415C387.815 382.3 387.88 382.144 387.88 381.98C387.88 381.817 387.815 381.661 387.7 381.546C387.585 381.43 387.429 381.366 387.265 381.366H153.049C152.886 381.366 152.73 381.43 152.615 381.546C152.499 381.661 152.435 381.817 152.435 381.98C152.435 382.144 152.499 382.3 152.615 382.415C152.73 382.53 152.886 382.595 153.049 382.595Z" fill="#CBCBCB"/>
<path d="M361.418 60.2464C361.726 58.0629 361.221 55.8425 360.001 54.0058C358.781 52.1691 356.929 50.8439 354.797 50.2812C352.665 49.7184 350.401 49.9573 348.433 50.9526C346.466 51.9479 344.931 53.6303 344.121 55.6812L325.115 77.4703L330.692 93.0458L349.806 67.5862C351.053 67.9857 352.373 68.1069 353.672 67.9412C354.971 67.7756 356.219 67.327 357.326 66.6273C358.433 65.9275 359.373 64.9935 360.08 63.891C360.787 62.7886 361.244 61.5445 361.418 60.2464Z" fill="#FFB7B7"/>
<path d="M282.636 145.028L345.726 77.6957L337.216 64.1665L258.085 131.09L282.636 145.028Z" fill="#3F3D56"/>
<path d="M268.556 104.117C280.779 104.117 290.687 94.2091 290.687 81.9866C290.687 69.7642 280.779 59.856 268.556 59.856C256.334 59.856 246.426 69.7642 246.426 81.9866C246.426 94.2091 256.334 104.117 268.556 104.117Z" fill="#5EDCD4"/>
<path d="M270.334 69.4851C275.096 64.6559 280.859 60.9294 287.217 58.5678C291.298 57.0559 295.74 56.1218 300.006 56.9804C304.273 57.839 308.308 60.7906 309.498 64.9768C310.471 68.3999 309.467 72.0855 307.956 75.3078C306.446 78.5301 304.429 81.5182 303.207 84.8608C301.961 88.2714 301.586 91.9393 302.117 95.5315C302.648 99.1237 304.067 102.526 306.246 105.431C308.426 108.335 311.296 110.65 314.597 112.163C317.897 113.677 321.524 114.343 325.147 114.099C320.955 114.661 317.09 116.631 312.993 117.68C308.895 118.729 304.059 118.658 301.014 115.722C297.792 112.616 297.728 107.566 297.883 103.094C298.115 96.4453 298.347 89.7969 298.578 83.1484C298.696 79.7579 298.797 76.2586 297.574 73.094C296.352 69.9294 293.446 67.1583 290.053 67.1871C287.482 67.2089 285.206 68.7665 283.144 70.3026C281.082 71.8387 278.9 73.4776 276.339 73.706C273.778 73.9345 270.853 72.0392 271.045 69.4751L270.334 69.4851Z" fill="#5EDCD4"/>
<path d="M184.501 230.583C182.377 231.174 180.109 230.964 178.129 229.994C176.149 229.024 174.593 227.362 173.756 225.322C172.92 223.281 172.861 221.005 173.59 218.924C174.32 216.844 175.788 215.103 177.715 214.032L196.834 192.341L213.004 195.835L190.261 218.112C190.82 219.296 191.112 220.589 191.118 221.899C191.123 223.208 190.842 224.503 190.293 225.692C189.743 226.881 188.94 227.936 187.94 228.781C186.939 229.626 185.765 230.241 184.501 230.583Z" fill="#FFB7B7"/>
<path d="M247.402 152.93L199.751 212.745L185.226 206.076L241.235 118.878L247.402 152.93Z" fill="#3F3D56"/>
<path d="M209.38 333.545L198.023 333.367L199.389 372.075H209.378L209.38 333.545Z" fill="#FFB7B7"/>
<path d="M211.924 368.813L192.251 368.812H192.251C188.926 368.813 185.737 370.134 183.386 372.485C181.035 374.836 179.714 378.024 179.714 381.349V381.756L211.923 381.758L211.924 368.813Z" fill="#5EDCD4"/>
<path d="M284.573 323.279L272.167 331.244L296.983 361.099L305.389 355.702L284.573 323.279Z" fill="#FFB7B7"/>
<path d="M305.771 351.581L289.217 362.209L289.216 362.209C286.419 364.006 284.449 366.84 283.741 370.088C283.033 373.337 283.644 376.734 285.44 379.532L285.66 379.875L312.764 362.473L305.771 351.581Z" fill="#5EDCD4"/>
<path d="M288.992 205.082C288.992 205.082 261.427 113.531 252.569 112.293C243.71 111.056 229.437 135.785 229.437 135.785C210.932 159.396 191.85 235.877 191.85 235.877C191.85 235.877 223.66 237.868 246.914 250.24C270.168 262.611 297.61 249.613 297.61 249.613L288.992 205.082Z" fill="#3F3D56"/>
<path opacity="0.1" d="M288.992 205.082C288.992 205.082 261.427 113.531 252.569 112.294C243.71 111.056 233.062 136.036 233.062 136.036C223.841 174.149 191.85 235.877 191.85 235.877C191.85 235.877 223.66 237.868 246.914 250.24C270.168 262.612 297.61 249.613 297.61 249.613L288.992 205.082Z" fill="black"/>
<path d="M266.378 177.691V223.695L271.792 290.336L298.841 340.745L285.931 349.966L249.047 302.016L234.458 254.405L211.548 359.801L194.335 358.572L206.289 212.441L228.974 171.309L266.378 177.691Z" fill="#5EDCD4"/>
<path d="M238.587 133.194C229.981 141.801 237.973 151.022 237.973 151.022L228.137 173.152L266.865 183.603L280.4 123.126L271.179 113.29C252.736 112.675 252.726 112.293 252.726 112.293C249.495 115.455 238.587 133.194 238.587 133.194Z" fill="#5EDCD4"/>
<path d="M281.957 116.861C280.198 115.563 278.199 114.626 276.076 114.106C273.952 113.585 271.747 113.492 269.587 113.83C267.427 114.168 265.355 114.931 263.492 116.075C261.629 117.22 260.012 118.722 258.734 120.496C248.998 134.052 239.995 155.943 252.399 183.244C272.316 227.081 289.648 249.522 296.695 249.519C297.002 249.522 297.308 249.474 297.6 249.377C301.937 247.906 308.208 240.566 309.343 234.099C309.75 231.784 309.653 228.56 306.885 226.346C298.933 219.986 284.657 200.181 280.204 174.115C277.743 159.712 282.515 146.592 286.952 138.122C288.826 134.617 289.375 130.555 288.497 126.679C287.618 122.803 285.373 119.373 282.171 117.019L281.957 116.861Z" fill="#3F3D56"/>
<path d="M269.694 101.943C277.588 97.6276 280.49 87.7294 276.174 79.8348C271.859 71.9403 261.96 69.0389 254.066 73.3545C246.171 77.67 243.27 87.5683 247.585 95.4628C251.901 103.357 261.799 106.259 269.694 101.943Z" fill="#FFB7B7"/>
<path d="M238.97 86.4172H262.493L262.734 83.0399L263.94 86.4172H267.563L268.041 79.7236L270.431 86.4172H277.44V86.0856C277.434 81.4255 275.581 76.9579 272.286 73.6627C268.991 70.3676 264.523 68.5141 259.863 68.5088H256.546C251.886 68.514 247.419 70.3676 244.124 73.6627C240.829 76.9578 238.975 81.4255 238.97 86.0856V86.4172Z" fill="#5EDCD4"/>
<path d="M273.885 98.5566L283.923 95.2993V70.9214H264.962L265.431 71.3901C271.963 77.913 279.227 101.056 273.885 98.5566Z" fill="#5EDCD4"/>
</g>
<defs>
<clipPath id="clip0_56_739">
<rect width="388" height="382" fill="white" transform="translate(0 0.858887)"/>
</clipPath>
</defs>
</svg>
