<svg width="220" height="570" viewBox="0 0 220 570" fill="none" xmlns="http://www.w3.org/2000/svg">
<g clip-path="url(#clip0_56_667)">
<circle opacity="0.8" cx="110.78" cy="110" r="55" fill="#5EDCD4"/>
<path d="M88.7797 104H90.2797L100.478 91.2519C101.04 90.5493 101.753 89.9821 102.564 89.5923C103.375 89.2026 104.264 89.0001 105.163 89H125.217C127.671 89 129.877 90.4934 130.788 92.7716L135.28 104.212C137.863 104.881 139.78 107.207 139.78 110V120.5C139.78 121.329 139.108 122 138.28 122H133.78C133.78 126.971 129.75 131 124.78 131C119.809 131 115.78 126.971 115.78 122H103.78C103.78 126.971 99.7503 131 94.7797 131C89.809 131 85.7797 126.971 85.7797 122H81.2797C80.4509 122 79.7797 121.329 79.7797 120.5V113C79.7797 108.029 83.809 104 88.7797 104ZM124.78 126.5C127.261 126.5 129.28 124.482 129.28 122C129.28 119.518 127.261 117.5 124.78 117.5C122.298 117.5 120.28 119.518 120.28 122C120.28 124.482 122.298 126.5 124.78 126.5ZM118.03 104H128.817L125.217 95H118.03V104ZM113.53 104V95H105.163L97.9634 104H113.53ZM94.7797 126.5C97.2612 126.5 99.2797 124.482 99.2797 122C99.2797 119.518 97.2612 117.5 94.7797 117.5C92.2981 117.5 90.2797 119.518 90.2797 122C90.2797 124.482 92.2981 126.5 94.7797 126.5Z" fill="#042352"/>
</g>
<g clip-path="url(#clip1_56_667)">
<circle cx="110.78" cy="245" r="55" fill="#224E8F" fill-opacity="0.24"/>
<path d="M109.984 234.104L90.7805 249.921V266.991C90.7805 267.433 90.956 267.857 91.2686 268.17C91.5811 268.482 92.005 268.658 92.447 268.658L104.119 268.628C104.56 268.625 104.981 268.449 105.292 268.137C105.603 267.824 105.777 267.402 105.777 266.961V256.992C105.777 256.55 105.953 256.126 106.265 255.814C106.578 255.501 107.002 255.326 107.444 255.326H114.11C114.552 255.326 114.976 255.501 115.288 255.814C115.601 256.126 115.776 256.55 115.776 256.992V266.954C115.776 267.173 115.818 267.39 115.902 267.593C115.985 267.796 116.108 267.98 116.263 268.136C116.418 268.291 116.601 268.414 116.804 268.498C117.007 268.582 117.224 268.626 117.443 268.626L129.111 268.658C129.553 268.658 129.977 268.482 130.289 268.17C130.602 267.857 130.777 267.433 130.777 266.991V249.909L111.578 234.104C111.352 233.922 111.071 233.823 110.781 233.823C110.491 233.823 110.21 233.922 109.984 234.104ZM140.318 244.854L131.611 237.677V223.25C131.611 222.918 131.479 222.6 131.245 222.366C131.01 222.132 130.692 222 130.361 222H124.528C124.196 222 123.878 222.132 123.644 222.366C123.41 222.6 123.278 222.918 123.278 223.25V230.813L113.953 223.141C113.058 222.404 111.935 222.001 110.776 222.001C109.617 222.001 108.494 222.404 107.599 223.141L81.2333 244.854C81.1067 244.959 81.002 245.088 80.9251 245.233C80.8482 245.378 80.8007 245.537 80.7852 245.7C80.7698 245.864 80.7866 246.028 80.8349 246.185C80.8832 246.342 80.9619 246.488 81.0666 246.615L83.7227 249.844C83.8271 249.971 83.9555 250.076 84.1005 250.153C84.2456 250.23 84.4045 250.278 84.5681 250.294C84.7317 250.31 84.8968 250.293 85.054 250.245C85.2111 250.197 85.3573 250.118 85.484 250.013L109.984 229.834C110.21 229.652 110.491 229.553 110.781 229.553C111.071 229.553 111.352 229.652 111.578 229.834L136.079 250.013C136.206 250.118 136.351 250.197 136.508 250.245C136.665 250.293 136.83 250.31 136.994 250.295C137.157 250.279 137.316 250.232 137.461 250.155C137.606 250.078 137.735 249.973 137.839 249.847L140.495 246.618C140.6 246.491 140.678 246.344 140.726 246.186C140.774 246.029 140.79 245.863 140.773 245.699C140.757 245.536 140.708 245.377 140.63 245.232C140.552 245.087 140.446 244.958 140.318 244.854Z" fill="white"/>
</g>
<g clip-path="url(#clip2_56_667)">
<circle cx="110.78" cy="380" r="55" fill="#224E8F" fill-opacity="0.24"/>
<path d="M92.0297 380C95.4814 380 98.2797 377.202 98.2797 373.75C98.2797 370.298 95.4814 367.5 92.0297 367.5C88.5779 367.5 85.7797 370.298 85.7797 373.75C85.7797 377.202 88.5779 380 92.0297 380Z" fill="white"/>
<path d="M103.28 370C106.731 370 109.53 367.202 109.53 363.75C109.53 360.298 106.731 357.5 103.28 357.5C99.8279 357.5 97.0297 360.298 97.0297 363.75C97.0297 367.202 99.8279 370 103.28 370Z" fill="white"/>
<path d="M118.28 370C121.731 370 124.53 367.202 124.53 363.75C124.53 360.298 121.731 357.5 118.28 357.5C114.828 357.5 112.03 360.298 112.03 363.75C112.03 367.202 114.828 370 118.28 370Z" fill="white"/>
<path d="M129.53 380C132.981 380 135.78 377.202 135.78 373.75C135.78 370.298 132.981 367.5 129.53 367.5C126.078 367.5 123.28 370.298 123.28 373.75C123.28 377.202 126.078 380 129.53 380Z" fill="white"/>
<path d="M124.129 387.15C121.954 384.6 120.129 382.425 117.929 379.875C116.779 378.525 115.304 377.175 113.554 376.575C113.279 376.475 113.004 376.4 112.729 376.35C112.104 376.25 111.429 376.25 110.779 376.25C110.129 376.25 109.454 376.25 108.804 376.375C108.529 376.425 108.254 376.5 107.979 376.6C106.229 377.2 104.779 378.55 103.604 379.9C101.429 382.45 99.6043 384.625 97.4043 387.175C94.1293 390.45 90.1043 394.075 90.8543 399.15C91.5793 401.7 93.4043 404.225 96.6793 404.95C98.5043 405.325 104.329 403.85 110.529 403.85H110.979C117.179 403.85 123.004 405.3 124.829 404.95C128.104 404.225 129.929 401.675 130.654 399.15C131.429 394.05 127.404 390.425 124.129 387.15Z" fill="white"/>
</g>
<g clip-path="url(#clip3_56_667)">
<circle cx="110.78" cy="515" r="55" fill="#224E8F" fill-opacity="0.24"/>
<path d="M115.992 520.713L107.392 528.363L108.712 534.42L102.492 540.64L96.2246 530.838L86.4221 524.57L92.6421 518.35L99.0296 520L106.347 511.068L90.9196 500.783L97.9896 493.71L117.28 500.143L126.762 490.66C129.69 487.73 134.225 487.515 136.887 490.178C139.55 492.84 139.332 497.373 136.405 500.303L126.922 509.785L133.35 529.068L126.28 536.14L115.995 520.713H115.992Z" fill="white"/>
</g>
<defs>
<clipPath id="clip0_56_667">
<rect width="110" height="110" fill="white" transform="translate(55.7797 55)"/>
</clipPath>
<clipPath id="clip1_56_667">
<rect width="110" height="110" fill="white" transform="translate(55.7797 190)"/>
</clipPath>
<clipPath id="clip2_56_667">
<rect width="110" height="110" fill="white" transform="translate(55.7797 325)"/>
</clipPath>
<clipPath id="clip3_56_667">
<rect width="110" height="110" fill="white" transform="translate(55.7797 460)"/>
</clipPath>
</defs>
</svg>
